<svg xmlns="http://www.w3.org/2000/svg" viewBox="0 0 48 48" role="img" aria-label="Paramètres">
  <path d="M24 16a8 8 0 1 0 0 16 8 8 0 0 0 0-16Z" fill="none" stroke="#22f078" stroke-width="3.5"/>
  <path d="M38.5 27.5v-7l-5-1.4a15.3 15.3 0 0 0-1.5-3.5l2.6-4.5-5-5-4.5 2.6a15.3 15.3 0 0 0-3.5-1.5L20.5 2.5h-7l-1.4 5a15.3 15.3 0 0 0-3.5 1.5L4.1 6.4l-5 5 2.6 4.5a15.3 15.3 0 0 0-1.5 3.5l-5 1.4v7l5 1.4a15.3 15.3 0 0 0 1.5 3.5l-2.6 4.5 5 5 4.5-2.6a15.3 15.3 0 0 0 3.5 1.5l1.4 5h7l1.4-5a15.3 15.3 0 0 0 3.5-1.5l4.5 2.6 5-5-2.6-4.5a15.3 15.3 0 0 0 1.5-3.5l5-1.4Z" fill="none" stroke="#22f078" stroke-width="2.6" stroke-linejoin="round" transform="translate(7 0) scale(.72)"/>
</svg>
